<svg xmlns="http://www.w3.org/2000/svg" viewBox="0 0 400 400"><defs><style>.cls-1{fill:#0864af;}.cls-2{fill:#fff;}.cls-3{fill:#86c8d6;}</style></defs><title>Asset 1</title><g id="Layer_2" data-name="Layer 2"><g id="Layer_1-2" data-name="Layer 1"><circle class="cls-1" cx="200" cy="200" r="200"/><path class="cls-2" d="M79.68,141.25a219.86,219.86,0,0,1,35-2.64c18.26,0,29,2.48,37.48,9.63,7,5.84,10.07,15.22,10.07,26,0,16.38-8.57,27.49-20.43,31.82v.57c5.89,5.41,12.76,12.18,16,24.42,4,15.82,9.09,30.56,11.72,35.45H145.58c-1.23-5.26-3.25-12.93-6.82-28.74-3.58-16.57-11.25-23-24.43-23.41H102.65v52.16h-23Zm18.5,56.11h13.75c15.63,0,25.42-8.28,25.42-20.9,0-13.93-9.79-20.34-24.86-20.34-7.34,0-12.05.56-14.31,1.13Z"/><path class="cls-3" d="M251.62,139.55v74c0,24.86,10.36,36.34,26,36.34,16.76,0,26.74-11.49,26.74-36.34v-74H327.5V212c0,39.16-20.15,56.49-50.65,56.49-29.37,0-48.39-16.38-48.39-56.3V139.55Z"/><path class="cls-2" d="M167.91,202.06c0-10.54-.19-19.39-.75-27.3H187.5l1.13,13.74h.56c4-7.15,13.93-15.82,29.18-15.82,16,0,32.58,10.36,32.58,39.35v54.42H227.79V214.68c0-13.18-4.9-23.16-17.51-23.16-9.23,0-15.63,6.59-18.08,13.56a23.62,23.62,0,0,0-.94,7.53v53.85H167.91Z"/><path class="cls-2" d="M190.75,156.11c0,6.14-4.48,11-11.62,11-6.8,0-11.29-4.81-11.29-11,0-6.31,4.65-11.12,11.45-11.12C186.27,145,190.58,149.81,190.75,156.11Z"/><rect class="cls-3" x="167.62" y="174.76" width="23.35" height="132.3"/></g></g></svg>