<svg xmlns="http://www.w3.org/2000/svg" viewBox="0 0 400 400"><defs><style>.cls-1{fill:#0864af;}.cls-2{fill:#86c8d6;}.cls-3{fill:#fff;}</style></defs><title>Asset 3</title><g id="Layer_2" data-name="Layer 2"><g id="Layer_1-2" data-name="Layer 1"><circle class="cls-1" cx="200" cy="200" r="200"/><path class="cls-2" d="M165.34,217.17H126.27V193.78h23.32m39.75-40.7h-62.8V129.46h91.51v23.32m5.21,110.95-4.53,0v23.37H130.1V263.48h61.85m2.55-46.31,0-23.39"/><ellipse class="cls-1" cx="120.77" cy="141.26" rx="13.22" ry="12.88"/><path class="cls-3" d="M122.72,141.59c0,5.88-4.29,10.49-11.13,10.49-6.52,0-10.81-4.61-10.81-10.49,0-6,4.45-10.65,11-10.65C118.42,130.94,122.56,135.55,122.72,141.59ZM97.5,287.11V193.46h29v93.65Z"/><path class="cls-3" d="M250.72,263.58H310.5v23.63H221.94V129.49H309.6v23.63H250.72"/><rect class="cls-1" x="221.44" y="257.45" width="29.83" height="6.1"/></g></g></svg>