<svg xmlns="http://www.w3.org/2000/svg" viewBox="0 0 656.53 209.05"><defs><style>.cls-1{fill:#f2d738;}.cls-2{fill:#0864af;}.cls-3,.cls-4{fill:none;stroke:#f2d738;stroke-miterlimit:10;}.cls-3{stroke-width:2.2px;}.cls-4{stroke-width:1.4px;}</style></defs><title>logo-blue</title><g id="Layer_2" data-name="Layer 2"><g id="Layer_1-2" data-name="Layer 1"><polyline class="cls-1" points="81.88 27.38 82.38 15.49 163.71 15.49 163.71 199.9 74.24 209.06 74.99 191.17"/><polygon class="cls-2" points="164.71 199.9 50.26 188.64 0 0 166.76 55.09 164.71 199.9"/><path class="cls-3" d="M122,87.05a94.48,94.48,0,0,0,16.62,1.14l1.85,0a0,0,0,0,0,0-.06h0a94.48,94.48,0,0,0-17.39-1.26l-1.22,0a.09.09,0,0,0,0,.18Z"/><path class="cls-3" d="M56.6,88.35a94.48,94.48,0,0,0,16.62,1.14l1.85,0a0,0,0,0,0,0-.06h0a94.48,94.48,0,0,0-17.39-1.26l-1.22,0a.09.09,0,0,0,0,.18Z"/><path class="cls-3" d="M140.55,88.15c.41,21.31-16.2,38.92-37.1,39.34S65.28,111,64.87,89.66"/><path class="cls-3" d="M103.45,127.49c-27.6,1.45-46.66-18-47.07-39.34"/><path class="cls-3" d="M130.39,88.35c.3,15.59-11.85,28.47-27.14,28.78S75.33,105,75,89.45"/><path class="cls-3" d="M121.79,86.85c.3,15.59-10.78,28.21-29.18,28.34"/><line class="cls-4" x1="119.34" y1="99.63" x2="129.55" y2="96.02"/><line class="cls-4" x1="116.76" y1="103.79" x2="128.13" y2="99.77"/><line class="cls-4" x1="113.05" y1="107.82" x2="125.9" y2="104.15"/><line class="cls-4" x1="59.27" y1="102.82" x2="66.12" y2="100.39"/><line class="cls-4" x1="61.24" y1="106.38" x2="68.09" y2="103.96"/><line class="cls-4" x1="120.88" y1="95.63" x2="130.16" y2="92.34"/><line class="cls-4" x1="56.84" y1="95.69" x2="64.91" y2="92.83"/><line class="cls-4" x1="57.75" y1="99.25" x2="65.82" y2="96.4"/><path class="cls-3" d="M96.91,142.32h0a5.24,5.24,0,0,1,2.84-6.76h0a5.07,5.07,0,0,1,6.63,2.9h0a5.24,5.24,0,0,1-2.84,6.76h0A5.07,5.07,0,0,1,96.91,142.32Z"/><path class="cls-3" d="M98.63,144.59l-3.45-3.48a5,5,0,0,1-1-2.64h0a4.94,4.94,0,0,1,4.43-5.39h0a4.79,4.79,0,0,1,3.25.9l2.89,2.22"/><path class="cls-2" d="M196.89,73.13h52.23q16,0,24.2,6.26t8.18,17q0,11.76-10.88,17.94a28.2,28.2,0,0,1,9.79,7.9,18.38,18.38,0,0,1,3.34,11.24q0,10.5-7.52,16.79t-21.08,6.29H196.89Zm37,16.79v16.24h.93q6,0,8.53-1.83T245.84,98q0-8.09-9.73-8.09Zm0,30.24v18H235q6.34,0,9.05-1.94t2.71-6.7q0-9.41-10.34-9.41Z"/><path class="cls-2" d="M326.11,157.58q-15.64,0-25.79-9.43t-10.15-24.58q0-15.15,10-24.67t25.92-9.52q16,0,26.06,9.52t10,24.67q0,15.1-10,24.56T326.11,157.58Zm0-42.22a7.11,7.11,0,0,0-5.33,2.11,7.47,7.47,0,0,0-2.05,5.44,7.37,7.37,0,0,0,2.05,5.41,7.15,7.15,0,0,0,5.33,2.08,7.13,7.13,0,0,0,7.49-7.49,7.4,7.4,0,0,0-2.08-5.47A7.32,7.32,0,0,0,326.11,115.35Z"/><path class="cls-2" d="M405.72,157.58q-15.64,0-25.79-9.43t-10.15-24.58q0-15.15,10-24.67t25.92-9.52q16,0,26.06,9.52t10,24.67q0,15.1-10,24.56T405.72,157.58Zm0-42.22a7.11,7.11,0,0,0-5.33,2.11,7.47,7.47,0,0,0-2.05,5.44,7.37,7.37,0,0,0,2.05,5.41,7.16,7.16,0,0,0,5.33,2.08,7.13,7.13,0,0,0,7.49-7.49,7.14,7.14,0,0,0-7.49-7.55Z"/><path class="cls-2" d="M485.95,73.13v39.43q12.47-4.65,12.8-21.82h33.47q-.93,10.12-4,16.35a30.9,30.9,0,0,1-9.84,11.1,33.52,33.52,0,0,1,6.67,6.86,34.54,34.54,0,0,1,4.46,8.64,42.28,42.28,0,0,1,2.24,9.73,131.08,131.08,0,0,1,.52,13.15H498.75q0-15.2-3.09-22.48a17.36,17.36,0,0,0-9.71-9.9v32.38h-33.8V73.13Z"/><path class="cls-1" d="M574.79,90.74v65.85H541V90.74q6.67,3.77,17.34,3.77Q568.22,94.52,574.79,90.74Zm-9.73-3.55a9.71,9.71,0,0,1-9.63-9.63,9.08,9.08,0,0,1,2.84-6.73,9.35,9.35,0,0,1,6.78-2.79,9.52,9.52,0,0,1,9.52,9.52,9.35,9.35,0,0,1-2.79,6.78A9.08,9.08,0,0,1,565.05,87.2Z"/><path class="cls-1" d="M620.44,157.58q-15.64,0-25.79-9.43T584.5,123.56q0-15.15,10-24.67t25.92-9.52q16,0,26.06,9.52t10,24.67q0,15.1-10,24.56T620.44,157.58Zm0-42.22a7.11,7.11,0,0,0-5.33,2.11,7.47,7.47,0,0,0-2.05,5.44,7.37,7.37,0,0,0,2.05,5.41,7.16,7.16,0,0,0,5.33,2.08,7.13,7.13,0,0,0,7.49-7.49,7.14,7.14,0,0,0-7.49-7.55Z"/></g></g></svg>