<svg xmlns="http://www.w3.org/2000/svg" viewBox="0 0 15.48 15.37"><defs><style>.cls-1{fill:#fff;}</style></defs><title>phone</title><g id="Layer_2" data-name="Layer 2"><g id="PRINT"><path class="cls-1" d="M15.42,12.29a10.87,10.87,0,0,1-1.69,2.34c-1.25,1.18-3.48.65-4.49.4A12.34,12.34,0,0,1,3.51,11.7,12.53,12.53,0,0,1,.79,7.47C.3,6.12-.59,2.85.58,1.85a6,6,0,0,0,.62-.62A9.6,9.6,0,0,1,2.46.13.79.79,0,0,1,2.92,0a.87.87,0,0,1,.74.43l2,3.46C6.6,5.54,3.4,5.54,3.35,6.2a.25.25,0,0,0-.06.24A9.66,9.66,0,0,0,9,12.14c.57.16.56.22,1-.25.15-.16.18-2.21.83-2.13.09,0,4.09,1.39,4.09,1.39A.87.87,0,0,1,15.42,12.29Z"/></g></g></svg>