<svg xmlns="http://www.w3.org/2000/svg" viewBox="0 0 87.1 83.35"><defs><style>.cls-1{fill:#fff;}.cls-2,.cls-5{fill:#dbf1fa;}.cls-3,.cls-4{fill:#88c9d7;}.cls-4{font-size:19.74px;letter-spacing:-0.02em;}.cls-4,.cls-5{font-family:Rockwell, Rockwell;}.cls-5{font-size:19.25px;letter-spacing:-0.1em;}</style></defs><title>logoWSsm</title><g id="Layer_2" data-name="Layer 2"><g id="Layer_1-2" data-name="Layer 1"><path class="cls-1" d="M3.17,76V62.67H0V59.1H7.19V76h3.17v3.57H0V76ZM2.6,52.15a2.37,2.37,0,0,1,.69-1.69A2.31,2.31,0,0,1,5,49.74a2.37,2.37,0,0,1,1.71.7,2.29,2.29,0,0,1,.72,1.71,2.33,2.33,0,0,1-.72,1.72A2.35,2.35,0,0,1,5,54.58a2.33,2.33,0,0,1-1.72-.72A2.35,2.35,0,0,1,2.6,52.15Z"/><path class="cls-1" d="M14.9,75.89v-22h-4V50.16H22.28a41.25,41.25,0,0,1,7.26.49,12.47,12.47,0,0,1,4.94,2.2,12,12,0,0,1,3.82,4.7,15.65,15.65,0,0,1,1.43,6.82,19.15,19.15,0,0,1-1.37,7.57,11,11,0,0,1-3.6,4.8,13.75,13.75,0,0,1-5.31,2.21,40.54,40.54,0,0,1-7.83.62H10.91V75.89Zm4.44,0h2.33a30.78,30.78,0,0,0,6.16-.49,9.68,9.68,0,0,0,3.84-1.66A8.17,8.17,0,0,0,34.2,70.2a14.63,14.63,0,0,0,1-5.58,12.41,12.41,0,0,0-1.6-6.49,7.48,7.48,0,0,0-4.08-3.48,26.43,26.43,0,0,0-7.64-.81H19.34Z"/><path class="cls-2" d="M44.48,64.34v-9H41.7V52.93h5V56a5.48,5.48,0,0,1,1.27-2A4,4,0,0,1,49.64,53a9.45,9.45,0,0,1,2.48-.26h.71v2.74h-.54a8.7,8.7,0,0,0-3.09.41,2.78,2.78,0,0,0-1.51,1.51,10.67,10.67,0,0,0-.49,3.92v3h3v2.41H41.7V64.34Z"/><path class="cls-3" d="M62.21,57.29H55.35a3,3,0,0,0,.89,1.83,2.65,2.65,0,0,0,1.9.7,3.11,3.11,0,0,0,2.65-1.35l1.42.62a4.27,4.27,0,0,1-1.79,1.59,5.37,5.37,0,0,1-2.31.52A4.68,4.68,0,0,1,54.9,60a4,4,0,0,1-1.33-3.15,4.05,4.05,0,0,1,1.29-3.09,4.22,4.22,0,0,1,3-1.21,4.38,4.38,0,0,1,3,1.18A4.61,4.61,0,0,1,62.21,57.29Zm-1.65-1.16a2.92,2.92,0,0,0-.89-1.55,2.47,2.47,0,0,0-1.78-.7,2.34,2.34,0,0,0-1.64.63,2.68,2.68,0,0,0-.83,1.62Z"/><path class="cls-1" d="M87.09,53.92V69a26.7,26.7,0,0,1-.26,4.43,7,7,0,0,1-1.4,2.88,7.86,7.86,0,0,1-3.21,2.41,12.61,12.61,0,0,1-5,.9,15.28,15.28,0,0,1-5.45-.84,7.4,7.4,0,0,1-3.28-2.25,7.6,7.6,0,0,1-1.46-3,24.46,24.46,0,0,1-.36-5V53.92H63.06V50.31H71v3.61h0V68.35A21,21,0,0,0,71.32,73,3.81,3.81,0,0,0,73,75.18a6.29,6.29,0,0,0,3.52.9,8.09,8.09,0,0,0,3.94-.78,3.78,3.78,0,0,0,1.81-2.09,16.51,16.51,0,0,0,.45-4.66V53.92H79.42V50.31H87.1"/><text class="cls-4" transform="translate(41.09 77.95)">a</text><text class="cls-5" transform="translate(52.84 61.57) rotate(90)">m</text><path class="cls-1" d="M12.88,38a5.17,5.17,0,0,0-2.65,4.2c-.15.07-.29.15-.44.24C8,43.61,7.19,45.61,8,47s3,1.51,4.79.38A4.53,4.53,0,0,0,14.76,45a6.32,6.32,0,0,0,2-.81c2.29-1.43,3.29-4,2.23-5.66S15.17,36.61,12.88,38Z"/><path class="cls-3" d="M12.88,38a6.39,6.39,0,0,0-1.39,1.17c1.6-.59,3.23-.29,3.94.85.85,1.37,0,3.41-1.8,4.57a5.1,5.1,0,0,1-1.58.65,3.66,3.66,0,0,1-1.56,1.9,3.94,3.94,0,0,1-1.58.58,4.08,4.08,0,0,0,3.91-.42A4.53,4.53,0,0,0,14.76,45a6.32,6.32,0,0,0,2-.81c2.29-1.43,3.29-4,2.23-5.66S15.17,36.61,12.88,38Z"/><ellipse class="cls-1" cx="5.04" cy="52.29" rx="2.57" ry="2.45"/><path class="cls-3" d="M5.65,49.91a2.38,2.38,0,0,1,.68,1.66A2.51,2.51,0,0,1,3.76,54a2.68,2.68,0,0,1-.61-.07,2.61,2.61,0,0,0,1.89.8A2.51,2.51,0,0,0,7.6,52.29,2.48,2.48,0,0,0,5.65,49.91Z"/><path class="cls-1" d="M76,16.79a8.84,8.84,0,0,0-3.59.76,7.15,7.15,0,0,0-9.84-4.89A14.65,14.65,0,0,0,33.46,14a12,12,0,1,0-12,20.3,10.19,10.19,0,0,0,17.94,6.45,11.06,11.06,0,0,0,20.31-2.18,9.36,9.36,0,0,0,15.79-4.08l.53,0a8.87,8.87,0,0,0,0-17.75Z"/><path class="cls-3" d="M75.51,34.52l.53,0a8.87,8.87,0,1,0-3.59-17,7.15,7.15,0,0,0-9.84-4.89A14.65,14.65,0,0,0,33.46,14S53.32.31,57.81,18c0,0,9.2-2.82,10.43,3.87,0,0,5.22-1.3,6,4.15.61,4.19-5,4.21-5,4.21s-.53,9.07-11.71,4.14c0,0-6.41,11.63-18.08,6.39a11.06,11.06,0,0,0,20.31-2.18,9.36,9.36,0,0,0,15.79-4.08Z"/></g></g></svg>