<svg xmlns="http://www.w3.org/2000/svg" viewBox="0 0 79.87 30.83"><defs><style>.cls-1{fill:#fff;}.cls-2{fill:#dbf1fa;}.cls-3,.cls-4{fill:#88c9d7;}.cls-4{isolation:isolate;font-size:18.1px;font-family:Rockwell, Rockwell;letter-spacing:-0.02em;}</style></defs><title>logosm</title><g id="Layer_2" data-name="Layer 2"><g id="Layer_1-2" data-name="Layer 1"><g id="Layer_2-2" data-name="Layer 2"><g id="Layer_1-2-2" data-name="Layer 1-2"><path class="cls-1" d="M2.91,24.08V11.87H0V8.59H6.59V24.08H9.5v3.27H0V24.08ZM2.38,2.22A2.17,2.17,0,0,1,3,.66,2.12,2.12,0,0,1,4.6,0,2.18,2.18,0,0,1,6.17.64a2.1,2.1,0,0,1,.66,1.57,2.14,2.14,0,0,1-.66,1.58,2.16,2.16,0,0,1-1.57.65A2.13,2.13,0,0,1,3,3.79,2.16,2.16,0,0,1,2.38,2.22Z"/><path class="cls-1" d="M13.67,24V3.77H10V.35H20.43A37.83,37.83,0,0,1,27.09.8a11.43,11.43,0,0,1,4.53,2,11,11,0,0,1,3.5,4.31,14.35,14.35,0,0,1,1.31,6.25,17.56,17.56,0,0,1-1.27,7,10.09,10.09,0,0,1-3.3,4.4,12.61,12.61,0,0,1-4.87,2,37.17,37.17,0,0,1-7.18.57H10V24Zm4.07,0h2.13a28.23,28.23,0,0,0,5.65-.45A8.88,8.88,0,0,0,29,22a7.49,7.49,0,0,0,2.33-3.25,13.42,13.42,0,0,0,.89-5.12,11.38,11.38,0,0,0-1.46-6A6.86,6.86,0,0,0,27,4.46a24.24,24.24,0,0,0-7-.75H17.74Z"/><path class="cls-2" d="M40.79,13.35V5.15h-2V2.94h4V5.79A5,5,0,0,1,44,3.94a3.71,3.71,0,0,1,1.58-1,8.67,8.67,0,0,1,2.27-.24h0V5.25H48a8,8,0,0,0-2.83.38A2.55,2.55,0,0,0,43.75,7a9.78,9.78,0,0,0-.45,3.59v2.75H46v2.21H38.8V13.35Z"/><path class="cls-3" d="M56.66,7.12H50.37a2.72,2.72,0,0,0,.82,1.68,2.43,2.43,0,0,0,1.74.64A2.85,2.85,0,0,0,55.36,8.2l1.3.57A3.91,3.91,0,0,1,55,10.23a4.92,4.92,0,0,1-2.12.48A4.29,4.29,0,0,1,50,9.64a3.65,3.65,0,0,1-1.22-2.89A3.72,3.72,0,0,1,50,3.91,3.87,3.87,0,0,1,52.69,2.8a4,4,0,0,1,2.73,1.09A4.23,4.23,0,0,1,56.66,7.12ZM55.15,6.05a2.68,2.68,0,0,0-.82-1.43A2.27,2.27,0,0,0,52.7,4a2.15,2.15,0,0,0-1.51.58,2.46,2.46,0,0,0-.76,1.49Z"/><path class="cls-1" d="M79.86,17.66a24.48,24.48,0,0,1-.24,4.06,6.42,6.42,0,0,1-1.28,2.63,7.2,7.2,0,0,1-2.95,2.21,11.56,11.56,0,0,1-4.62.83,14,14,0,0,1-5-.77,6.79,6.79,0,0,1-3-2.06,7,7,0,0,1-1.34-2.76,22.43,22.43,0,0,1-.33-4.54V3.84H57.82V.53h7.26V3.84h0V17.07a19.23,19.23,0,0,0,.32,4.28,3.49,3.49,0,0,0,1.6,2,5.77,5.77,0,0,0,3.23.83,7.42,7.42,0,0,0,3.61-.71,3.47,3.47,0,0,0,1.66-1.92,15.14,15.14,0,0,0,.41-4.27V3.84H72.83V.53h7v3"/><text class="cls-4" transform="translate(37.68 25.88)">a</text><path class="cls-2" d="M49.91,12.82h5.43V11.43H56.8v3H55.74a4.68,4.68,0,0,1,1.19,2.92,2,2,0,0,1-1.3,2,5,5,0,0,1,1.3,3,2.3,2.3,0,0,1-.36,1.33,1.75,1.75,0,0,1-.91.7,5.46,5.46,0,0,1-1.62.18H49.91v1.29H48.45V22.94h5.3a5.49,5.49,0,0,0,1-.06.81.81,0,0,0,.49-.33,1,1,0,0,0,.19-.63,4,4,0,0,0-1.08-2.39H49.91V21H48.45V17.89h5.46a2.26,2.26,0,0,0,1.19-.24.88.88,0,0,0,.37-.8,4.46,4.46,0,0,0-1.08-2.39H49.91v1.18H48.45V11.35h1.46Z"/><ellipse class="cls-1" cx="4.62" cy="2.34" rx="2.35" ry="2.25"/><path class="cls-3" d="M5.18.16A2.19,2.19,0,0,1,5.8,1.68,2.3,2.3,0,0,1,3.45,3.93h0a2.45,2.45,0,0,1-.56-.07,2.39,2.39,0,0,0,1.73.73A2.3,2.3,0,0,0,7,2.37v0A2.27,2.27,0,0,0,5.18.16Z"/></g></g></g></g></svg>